<svg height="335" viewBox="0 0 435 335" width="435" xmlns="http://www.w3.org/2000/svg"><g fill="none" fill-rule="evenodd"><g fill="#984b43"><path d="m0 0h20.567376v289h-20.567376z"/><path d="m217.269504 71.7836879h20v414.4326241h-20z" transform="matrix(0 1 -1 0 506.269504 51.730496)"/></g><g fill="#984b43"><path d="m0 0h20.567376v289h-20.567376z"/><path d="m217.269504 71.7836879h20v414.4326241h-20z" transform="matrix(0 1 -1 0 506.269504 51.730496)"/></g><g fill-rule="nonzero" transform="translate(46.392578 27.980469)"><path d="m0 20.9960938c0-2.89715.55337988-5.6152217 1.66015625-8.1542969s2.61229517-4.76073269 4.51660156-6.66503909c1.9043064-1.90430639 4.12596389-3.40982519 6.66503909-4.51660156s5.2571469-1.66015625 8.1542969-1.66015625h32.1289062v14.0136719h-32.1289062c-.9765674 0-1.8880167.1790346-2.734375.5371093-.8463584.3580748-1.5869109.8544891-2.2216797 1.4892579s-1.1311831 1.3753213-1.4892578 2.2216797c-.3580748.8463583-.5371094 1.7578076-.5371094 2.734375 0 .9765673.1790346 1.8961545.5371094 2.758789.3580747.8626345.854489 1.611325 1.4892578 2.2460938s1.3753213 1.1311831 2.2216797 1.4892578c.8463583.3580747 1.7578076.5371094 2.734375.5371094h14.0136718c2.8971499 0 5.6233596.5452419 8.178711 1.6357421 2.5553513 1.0905003 4.7851467 2.5878811 6.6894531 4.4921875s3.4016872 4.1341018 4.4921875 6.6894532c1.0905002 2.5553513 1.6357422 5.281561 1.6357422 8.1787109s-.545242 5.6152217-1.6357422 8.1542969c-1.0905003 2.5390752-2.5878811 4.7607326-4.4921875 6.665039s-4.1341018 3.4098252-6.6894531 4.5166016c-2.5553514 1.1067764-5.2815611 1.6601562-8.178711 1.6601562h-31.1035156v-14.0136718h31.1035156c.9765674 0 1.8880166-.1790347 2.734375-.5371094s1.5869109-.854489 2.2216797-1.4892578 1.1311831-1.3753213 1.4892578-2.2216797.5371094-1.7578125.5371094-2.734375c0-.9765674-.1790347-1.8880166-.5371094-2.734375s-.854489-1.5869109-1.4892578-2.2216797-1.3753213-1.1311831-2.2216797-1.4892578-1.7578076-.5371094-2.734375-.5371094h-14.0136718c-2.89715 0-5.6152217-.5533799-8.1542969-1.6601562-2.5390752-1.1067764-4.76073269-2.6122952-6.66503909-4.5166016-1.90430639-1.9043064-3.40982519-4.1341018-4.51660156-6.6894531s-1.66015625-5.281561-1.66015625-8.1787109z" fill="#eac67a"/><path d="m98.5026042 70.0195312h-33.5986328v-49.0136718h33.5986328v9.8095703h-23.7890625v9.8095703h16.0986328v9.8095703h-16.0986328v9.7753906h23.7890625zm36.8844398-19.5849609v-9.8095703c0-1.3444078-.256345-2.6147401-.769043-3.8110352-.512698-1.196295-1.213374-2.238765-2.10205-3.1274414-.888677-.8886763-1.931147-1.5893529-3.127442-2.1020507-1.196295-.5126979-2.466627-.769043-3.811035-.769043s-2.61474.2563451-3.811035.769043c-1.196295.5126978-2.238765 1.2133744-3.127442 2.1020507-.888676.8886764-1.589353 1.9311464-2.10205 3.1274414-.512698 1.1962951-.769043 2.4666274-.769043 3.8110352v9.8095703zm9.809571 19.5849609h-9.809571v-9.8095703h-19.61914v9.8095703h-9.775391v-29.3945312c0-2.7116021.51269-5.2579634 1.538086-7.6391602s2.421052-4.4604403 4.187012-6.2377929c1.765959-1.7773527 3.839506-3.1787058 6.220703-4.2041016 2.381197-1.0253957 4.927558-1.5380859 7.63916-1.5380859s5.257963.5126902 7.63916 1.5380859c2.381197 1.0253958 4.46044 2.4267489 6.237793 4.2041016 1.777353 1.7773526 3.178706 3.8565961 4.204102 6.2377929 1.025395 2.3811968 1.538086 4.9275581 1.538086 7.6391602zm48.88151 0h-10.493164l-18.901367-32.265625v32.265625h-9.809571v-49.0136718h10.493164l18.901368 32.2998047v-32.2998047h9.80957z" fill="#fff"/><path d="m53.125 139.019531h-49.0234375v-70.019531h14.0136719v56.005859h35.0097656z" fill="#eac67a"/><path d="m108.141276 114.717773c0 2.324231-.301918 4.562978-.905762 6.716309s-1.452631 4.169913-2.546386 6.049805c-1.093756 1.879892-2.415357 3.594556-3.964844 5.144043-1.5494871 1.549487-3.2584543 2.876785-5.1269533 3.981933-1.8684989 1.105149-3.8850803 1.959633-6.0498047 2.563477-2.1647243.603844-4.409168.905762-6.7333984.905762s-4.5629775-.301918-6.7163086-.905762-4.1699125-1.458328-6.0498047-2.563477c-1.8798922-1.105148-3.594556-2.432446-5.1440429-3.981933-1.549487-1.549487-2.8767849-3.264151-3.9819336-5.144043-1.1051488-1.879892-1.9596324-3.896474-2.5634766-6.049805s-.9057617-4.392078-.9057617-6.716309c0-2.32423.3019175-4.568674.9057617-6.733398s1.4583278-4.181306 2.5634766-6.049805c1.1051487-1.868499 2.4324466-3.5774659 3.9819336-5.1269528 1.5494869-1.5494869 3.2641507-2.8710883 5.1440429-3.9648438 1.8798922-1.0937554 3.8964736-1.9425425 6.0498047-2.5463867 2.1533311-.6038441 4.3920782-.9057617 6.7163086-.9057617s4.5686741.3019176 6.7333984.9057617c2.1647244.6038442 4.1813058 1.4526313 6.0498047 2.5463867 1.868499 1.0937555 3.5774662 2.4153569 5.1269533 3.9648438 1.549487 1.5494869 2.871088 3.2584538 3.964844 5.1269528 1.093755 1.868499 1.942542 3.885081 2.546386 6.049805s.905762 4.409168.905762 6.733398zm-9.7412109 0c0-2.141937-.4101521-4.164215-1.2304687-6.066894s-1.9311454-3.554681-3.3325196-4.956055-3.0533759-2.512203-4.9560547-3.332519c-1.9026787-.8203169-3.9249567-1.2304691-6.0668945-1.2304691-2.1647244 0-4.1926989.4101522-6.0839844 1.2304691-1.8912855.820316-3.5432872 1.931145-4.9560547 3.332519-1.4127674 1.401374-2.5292927 3.053376-3.3496093 4.956055s-1.2304688 3.924957-1.2304688 6.066894c0 2.141938.4101522 4.152823 1.2304688 6.032715s1.9368419 3.526198 3.3496093 4.938965c1.4127675 1.412768 3.0647692 2.529293 4.9560547 3.349609 1.8912855.820317 3.91926 1.230469 6.0839844 1.230469 2.1419378 0 4.1642158-.410152 6.0668945-1.230469 1.9026788-.820316 3.5546805-1.936841 4.9560547-3.349609 1.4013742-1.412767 2.512203-3.059073 3.3325196-4.938965s1.2304687-3.890777 1.2304687-6.032715zm39.3795569 24.301758h-9.77539v-15.346679c-2.164725-.546878-4.152823-1.424148-5.964356-2.631836-1.811532-1.207689-3.366692-2.648918-4.665527-4.323731s-2.307125-3.531891-3.024902-5.571289-1.076661-4.187-1.076661-6.442871v-14.6972656h9.809571v14.6972656c0 1.344408.256345 2.61474.769043 3.811035s1.213374 2.238765 2.102051 3.127442c.888676.888676 1.931146 1.589352 3.127441 2.10205s2.466627.769043 3.811035.769043 2.61474-.256345 3.811035-.769043 2.238765-1.213374 3.127442-2.10205c.888676-.888677 1.589353-1.931147 2.10205-3.127442.512698-1.196295.769043-2.466627.769043-3.811035v-14.6972656h9.775391v14.6972656c0 2.255871-.358883 4.403473-1.07666 6.442871s-1.726068 3.896476-3.024902 5.571289c-1.298835 1.674813-2.848299 3.116042-4.648438 4.323731-1.800139 1.207688-3.782541 2.084958-5.947266 2.631836zm56.845378 0h-34.316406v-49.0136716h9.80957v39.2041016h24.506836zm39.858073 0h-33.598633v-49.0136716h33.598633v9.8095703h-23.789063v9.8095703h16.098633v9.80957h-16.098633v9.775391h23.789063zm4.618815-34.316406c0-2.028005.387366-3.930655 1.162109-5.7080078.774744-1.7773526 1.828607-3.3325129 3.161621-4.6655274 1.333015-1.3330144 2.888175-2.3868776 4.665528-3.161621 1.777352-.7747435 3.680003-1.1621094 5.708008-1.1621094h22.490234v9.8095703h-22.490234c-.683598 0-1.321612.1253243-1.914063.3759763-.592451.250653-1.110837.598143-1.555176 1.042481-.444338.444338-.791828.962725-1.04248 1.555175-.250652.592451-.375977 1.230466-.375977 1.914063s.125325 1.327308.375977 1.931152c.250652.603845.598142 1.127928 1.04248 1.572266.444339.444338.962725.791828 1.555176 1.04248.592451.250653 1.230465.375977 1.914063.375977h9.80957c2.028005 0 3.936352.381669 5.725098 1.14502 1.788746.76335 3.349602 1.811516 4.682617 3.144531 1.333014 1.333014 2.381181 2.893871 3.144531 4.682617s1.14502 3.697093 1.14502 5.725098-.38167 3.930655-1.14502 5.708007c-.76335 1.777353-1.811517 3.332513-3.144531 4.665528-1.333015 1.333014-2.893871 2.386877-4.682617 3.161621-1.788746.774743-3.697093 1.162109-5.725098 1.162109h-21.772461v-9.80957h21.772461c.683597 0 1.321612-.125324 1.914062-.375977.592451-.250652 1.110838-.598142 1.555176-1.04248s.791828-.962725 1.042481-1.555176c.250652-.592451.375976-1.230469.375976-1.914062 0-.683598-.125324-1.321612-.375976-1.914063-.250653-.592451-.598143-1.110837-1.042481-1.555176-.444338-.444338-.962725-.791828-1.555176-1.04248-.59245-.250652-1.230465-.375977-1.914062-.375977h-9.80957c-2.028005 0-3.930656-.387366-5.708008-1.162109-1.777353-.774744-3.332513-1.828607-4.665528-3.161621-1.333014-1.333015-2.386877-2.893871-3.161621-4.682617-.774743-1.788746-1.162109-3.697093-1.162109-5.725098zm43.925456 0c0-2.028005.387366-3.930655 1.162109-5.7080078.774744-1.7773526 1.828607-3.3325129 3.161621-4.6655274 1.333015-1.3330144 2.888175-2.3868776 4.665528-3.161621 1.777352-.7747435 3.680002-1.1621094 5.708007-1.1621094h22.490235v9.8095703h-22.490235c-.683597 0-1.321611.1253243-1.914062.3759763-.592451.250653-1.110838.598143-1.555176 1.042481s-.791828.962725-1.04248 1.555175c-.250653.592451-.375977 1.230466-.375977 1.914063s.125324 1.327308.375977 1.931152c.250652.603845.598142 1.127928 1.04248 1.572266s.962725.791828 1.555176 1.04248c.592451.250653 1.230465.375977 1.914062.375977h9.809571c2.028005 0 3.936351.381669 5.725097 1.14502 1.788746.76335 3.349603 1.811516 4.682618 3.144531 1.333014 1.333014 2.381181 2.893871 3.144531 4.682617s1.145019 3.697093 1.145019 5.725098-.381669 3.930655-1.145019 5.708007c-.76335 1.777353-1.811517 3.332513-3.144531 4.665528-1.333015 1.333014-2.893872 2.386877-4.682618 3.161621-1.788746.774743-3.697092 1.162109-5.725097 1.162109h-21.772461v-9.80957h21.772461c.683597 0 1.321611-.125324 1.914062-.375977.592451-.250652 1.110838-.598142 1.555176-1.04248s.791828-.962725 1.04248-1.555176c.250653-.592451.375977-1.230469.375977-1.914062 0-.683598-.125324-1.321612-.375977-1.914063-.250652-.592451-.598142-1.110837-1.04248-1.555176-.444338-.444338-.962725-.791828-1.555176-1.04248s-1.230465-.375977-1.914062-.375977h-9.809571c-2.028005 0-3.930655-.387366-5.708007-1.162109-1.777353-.774744-3.332513-1.828607-4.665528-3.161621-1.333014-1.333015-2.386877-2.893871-3.161621-4.682617-.774743-1.788746-1.162109-3.697093-1.162109-5.725098z" fill="#fff"/><path d="m60.2050781 173.009766c0 3.222672-.4150349 6.323227-1.2451172 9.301757-.8300822 2.978531-2.0100835 5.761706-3.540039 8.34961-1.5299556 2.587903-3.352854 4.947906-5.46875 7.080078s-4.4758985 3.963208-7.0800781 5.493164c-2.6041797 1.529956-5.395493 2.709957-8.3740235 3.540039s-6.0790854 1.245117-9.3017578 1.245117h-21.09375v-70.019531h21.09375c3.2226724 0 6.3232273.415035 9.3017578 1.245117s5.7698438 2.010084 8.3740235 3.540039c2.6041796 1.529956 4.9641821 3.360992 7.0800781 5.493164s3.9387944 4.492175 5.46875 7.080078c1.5299555 2.587904 2.7099568 5.371079 3.540039 8.34961.8300823 2.97853 1.2451172 6.079085 1.2451172 9.301758zm-14.0136719 0c0-2.89715-.5452419-5.615222-1.6357421-8.154297-1.0905003-2.539075-2.5878811-4.760733-4.4921875-6.665039-1.9043064-1.904307-4.1341018-3.409826-6.6894532-4.516602-2.5553513-1.106776-5.281561-1.660156-8.1787109-1.660156h-6.9824219v41.992187h6.9824219c2.8971499 0 5.6233596-.545242 8.1787109-1.635742 2.5553514-1.0905 4.7851468-2.587881 6.6894532-4.492187 1.9043064-1.904307 3.4016872-4.134102 4.4921875-6.689453 1.0905002-2.555352 1.6357421-5.281561 1.6357421-8.178711z" fill="#eac67a"/><path d="m102.799479 208.019531h-33.5986326v-49.013672h33.5986326v9.809571h-23.7890623v9.80957h16.0986328v9.80957h-16.0986328v9.775391h23.7890623zm4.618815-34.316406c0-2.028005.387366-3.930655 1.16211-5.708008.774743-1.777352 1.828606-3.332513 3.161621-4.665527 1.333014-1.333015 2.888174-2.386878 4.665527-3.161621 1.777353-.774744 3.680003-1.16211 5.708008-1.16211h22.490234v9.809571h-22.490234c-.683597 0-1.321612.125324-1.914063.375976-.59245.250653-1.110837.598143-1.555175 1.042481-.444339.444338-.791829.962725-1.042481 1.555175-.250652.592451-.375976 1.230466-.375976 1.914063s.125324 1.327308.375976 1.931152c.250652.603845.598142 1.127928 1.042481 1.572266.444338.444338.962725.791828 1.555175 1.04248.592451.250653 1.230466.375977 1.914063.375977h9.80957c2.028005 0 3.936352.381669 5.725098 1.14502 1.788746.76335 3.349603 1.811516 4.682617 3.144531 1.333015 1.333014 2.381181 2.893871 3.144531 4.682617s1.14502 3.697093 1.14502 5.725098-.38167 3.930655-1.14502 5.708007c-.76335 1.777353-1.811516 3.332513-3.144531 4.665528-1.333014 1.333014-2.893871 2.386877-4.682617 3.161621-1.788746.774743-3.697093 1.162109-5.725098 1.162109h-21.772461v-9.80957h21.772461c.683597 0 1.321612-.125324 1.914063-.375977.592451-.250652 1.110837-.598142 1.555175-1.04248.444339-.444338.791829-.962725 1.042481-1.555176s.375977-1.230469.375977-1.914062c0-.683598-.125325-1.321612-.375977-1.914063s-.598142-1.110837-1.042481-1.555176c-.444338-.444338-.962724-.791828-1.555175-1.04248s-1.230466-.375977-1.914063-.375977h-9.80957c-2.028005 0-3.930655-.387366-5.708008-1.162109-1.777353-.774744-3.332513-1.828607-4.665527-3.161621-1.333015-1.333015-2.386878-2.893871-3.161621-4.682617-.774744-1.788746-1.16211-3.697093-1.16211-5.725098zm56.60612 34.316406h-9.80957v-49.013672h9.80957zm49.257487-4.956054c-2.278657 1.936858-4.819322 3.42366-7.62207 4.460449-2.802749 1.036789-5.719386 1.555176-8.75 1.555176-2.324231 0-4.562978-.301918-6.716309-.905762s-4.164216-1.458328-6.032715-2.563477c-1.868499-1.105148-3.577466-2.42675-5.126953-3.964843-1.549487-1.538094-2.871088-3.247061-3.964844-5.126954-1.093755-1.879892-1.942542-3.90217-2.546386-6.066894s-.905762-4.409168-.905762-6.733399c0-2.32423.301918-4.557281.905762-6.699218.603844-2.141938 1.452631-4.152823 2.546386-6.032715 1.093756-1.879892 2.415357-3.58886 3.964844-5.126953 1.549487-1.538094 3.258454-2.853999 5.126953-3.947754 1.868499-1.093756 3.879384-1.942543 6.032715-2.546387s4.392078-.905762 6.716309-.905762c3.030614 0 5.947251.518387 8.75 1.555176 2.802748 1.036789 5.343413 2.523591 7.62207 4.460449l-5.126953 8.544922c-1.481127-1.503914-3.190095-2.683101-5.126953-3.537597-1.936859-.854497-3.976226-1.281739-6.118164-1.281739s-4.152823.410152-6.032715 1.230469-3.526197 1.931145-4.938965 3.33252c-1.412767 1.401374-2.529293 3.041982-3.349609 4.921875-.820317 1.879892-1.230469 3.890777-1.230469 6.032714 0 2.164725.410152 4.192699 1.230469 6.083985.820316 1.891285 1.936842 3.543287 3.349609 4.956054 1.412768 1.412768 3.059073 2.529293 4.938965 3.34961 1.879892.820316 3.890777 1.230469 6.032715 1.230469 1.230475 0 2.426752-.148111 3.588867-.444336 1.162115-.296226 2.267247-.706378 3.31543-1.230469v-13.945313h9.467773zm47.924479 4.956054h-10.493164l-18.901367-32.265625v32.265625h-9.80957v-49.013672h10.493164l18.901367 32.299805v-32.299805h9.80957zm7.38737-34.316406c0-2.028005.387366-3.930655 1.162109-5.708008.774744-1.777352 1.828607-3.332513 3.161621-4.665527 1.333015-1.333015 2.888175-2.386878 4.665528-3.161621 1.777352-.774744 3.680003-1.16211 5.708008-1.16211h22.490234v9.809571h-22.490234c-.683598 0-1.321612.125324-1.914063.375976-.592451.250653-1.110837.598143-1.555176 1.042481-.444338.444338-.791828.962725-1.04248 1.555175-.250652.592451-.375977 1.230466-.375977 1.914063s.125325 1.327308.375977 1.931152c.250652.603845.598142 1.127928 1.04248 1.572266.444339.444338.962725.791828 1.555176 1.04248.592451.250653 1.230465.375977 1.914063.375977h9.80957c2.028005 0 3.936352.381669 5.725098 1.14502 1.788746.76335 3.349602 1.811516 4.682617 3.144531 1.333014 1.333014 2.381181 2.893871 3.144531 4.682617s1.14502 3.697093 1.14502 5.725098-.38167 3.930655-1.14502 5.708007c-.76335 1.777353-1.811517 3.332513-3.144531 4.665528-1.333015 1.333014-2.893871 2.386877-4.682617 3.161621-1.788746.774743-3.697093 1.162109-5.725098 1.162109h-21.772461v-9.80957h21.772461c.683597 0 1.321612-.125324 1.914062-.375977.592451-.250652 1.110838-.598142 1.555176-1.04248s.791828-.962725 1.042481-1.555176c.250652-.592451.375976-1.230469.375976-1.914062 0-.683598-.125324-1.321612-.375976-1.914063-.250653-.592451-.598143-1.110837-1.042481-1.555176-.444338-.444338-.962725-.791828-1.555176-1.04248-.59245-.250652-1.230465-.375977-1.914062-.375977h-9.80957c-2.028005 0-3.930656-.387366-5.708008-1.162109-1.777353-.774744-3.332513-1.828607-4.665528-3.161621-1.333014-1.333015-2.386877-2.893871-3.161621-4.682617-.774743-1.788746-1.162109-3.697093-1.162109-5.725098z" fill="#fff"/></g><text font-family="IBMPlexSans-SemiBold, IBM Plex Sans" font-size="34" font-weight="500"><tspan fill="#fff" x="0" y="327">developer</tspan> <tspan fill="#eac67a" x="158.032" y="327">architect</tspan> <tspan fill="#fff" x="299.064" y="327">designer</tspan></text></g></svg>